<svg height="100" viewBox="0 0 400 100" xmlns="http://www.w3.org/2000/svg">
  <!-- Icon with white outline -->
  <g>
    <!-- White outline -->
    <rect x="8" y="8" width="84" height="84" rx="18" ry="18" fill="none" stroke="white" stroke-width="3"/>
    <!-- Navy background -->
    <rect x="12" y="12" width="76" height="76" rx="15" ry="15" fill="#1a3a5c"/>
    <!-- People figures in white -->
    <g fill="white">
      <circle cx="50" cy="28" r="3.5"/>
      <path d="M 50 32 L 47 35 L 47 42 L 53 42 L 53 35 Z"/>
      <circle cx="35" cy="33" r="3.5"/>
      <path d="M 35 37 L 32 40 L 32 47 L 38 47 L 38 40 Z"/>
      <circle cx="65" cy="33" r="3.5"/>
      <path d="M 65 37 L 62 40 L 62 47 L 68 47 L 68 40 Z"/>
      <circle cx="28" cy="45" r="3"/>
      <path d="M 28 48.5 L 25.5 51 L 25.5 57 L 30.5 57 L 30.5 51 Z"/>
      <circle cx="72" cy="45" r="3"/>
      <path d="M 72 48.5 L 69.5 51 L 69.5 57 L 74.5 57 L 74.5 51 Z"/>
      <circle cx="37" cy="55" r="3"/>
      <path d="M 37 58.5 L 34.5 61 L 34.5 67 L 39.5 67 L 39.5 61 Z"/>
      <circle cx="63" cy="55" r="3"/>
      <path d="M 63 58.5 L 60.5 61 L 60.5 67 L 65.5 67 L 65.5 61 Z"/>
      <circle cx="43" cy="65" r="2.8"/>
      <path d="M 43 68 L 40.8 70 L 40.8 75 L 45.2 75 L 45.2 70 Z"/>
      <circle cx="57" cy="65" r="2.8"/>
      <path d="M 57 68 L 54.8 70 L 54.8 75 L 59.2 75 L 59.2 70 Z"/>
      <circle cx="50" cy="74" r="2.8"/>
      <path d="M 50 77 L 47.8 79 L 47.8 84 L 52.2 84 L 52.2 79 Z"/>
    </g>
  </g>
  
  <!-- Text - "West" in regular, "Inwood" in italic -->
  <text x="110" y="55" font-family="Georgia, serif" font-size="40" font-weight="400" fill="white">West</text>
  <text x="110" y="90" font-family="Georgia, serif" font-size="40" font-weight="400" font-style="italic" fill="white">Inwood</text>
</svg>

