<svg xmlns="http://www.w3.org/2000/svg" viewBox="0 0 1000 850" width="1000" height="850" role="img" aria-label="West Inwood logo">
  <!-- Colors -->
  <defs>
    <style>
      .bg { fill: #142843; }        /* deep navy background */
      .mark { fill: none; stroke: #F0EDE6; stroke-width: 18; stroke-linecap: round; stroke-linejoin: round; } 
      .accent { fill: #F0EDE6; }    /* light cream for shapes and text */
      .title { fill: #F0EDE6; font-family: "Garamond", "Times New Roman", Georgia, serif; text-anchor: middle; }
    </style>
  </defs>

  <!-- Background -->
  <rect class="bg" x="0" y="0" width="1000" height="850"/>

  <!-- Rounded square icon (outline) - repositioned higher -->
  <rect x="275" y="50" width="450" height="450" rx="40" ry="40" class="mark"/>

  <!-- Heart shape inside rounded square -->
  <path class="mark" d="M500 190
                       C460 120, 360 120, 330 180
                       C300 240, 380 320, 500 420
                       C620 320, 700 240, 670 180
                       C640 120, 540 120, 500 190 Z" fill="none"/>

  <!-- Simplified people group inside the heart -->
  <g transform="translate(0,-30)" stroke-linecap="round" stroke-linejoin="round">
    <!-- center person -->
    <circle cx="500" cy="300" r="22" class="accent"/>
    <rect x="482" y="324" width="36" height="64" rx="10" ry="10" class="accent"/>

    <!-- left person (slightly behind, smaller) -->
    <circle cx="430" cy="330" r="18" class="accent"/>
    <rect x="414" y="350" width="32" height="56" rx="9" ry="9" class="accent"/>

    <!-- right person -->
    <circle cx="570" cy="330" r="18" class="accent"/>
    <rect x="554" y="350" width="32" height="56" rx="9" ry="9" class="accent"/>

    <!-- two small front people (lower, smaller) -->
    <circle cx="470" cy="380" r="14" class="accent"/>
    <rect x="458" y="398" width="24" height="44" rx="7" ry="7" class="accent"/>

    <circle cx="530" cy="380" r="14" class="accent"/>
    <rect x="518" y="398" width="24" height="44" rx="7" ry="7" class="accent"/>
  </g>

  <!-- Title text: "West" (regular) above "Inwood" (italic) - repositioned up -->
  <text x="500" y="600" class="title" font-size="140" font-weight="400">West</text>
  <text x="500" y="730" class="title" font-size="170" font-style="italic">Inwood</text>
</svg>

