<svg xmlns="http://www.w3.org/2000/svg" viewBox="0 0 100 100" width="100" height="100" role="img" aria-label="West Inwood favicon">
  <!-- Colors -->
  <defs>
    <style>
      .bg { fill: #142843; }        /* deep navy background */
      .mark { fill: none; stroke: #F0EDE6; stroke-width: 2; stroke-linecap: round; stroke-linejoin: round; } 
      .accent { fill: #F0EDE6; }    /* light cream for shapes */
    </style>
  </defs>

  <!-- Background -->
  <rect class="bg" x="0" y="0" width="100" height="100"/>

  <!-- Rounded square icon (outline) -->
  <rect x="15" y="15" width="70" height="70" rx="8" ry="8" class="mark"/>

  <!-- Simplified heart shape -->
  <path class="mark" d="M50 30
                       C42 20, 28 20, 25 35
                       C22 50, 35 62, 50 75
                       C65 62, 78 50, 75 35
                       C72 20, 58 20, 50 30 Z" fill="none"/>

  <!-- Simplified people group (just 3 people for favicon clarity) -->
  <g stroke-linecap="round" stroke-linejoin="round">
    <!-- center person -->
    <circle cx="50" cy="42" r="3" class="accent"/>
    <rect x="47.5" y="46" width="5" height="8" rx="1" ry="1" class="accent"/>

    <!-- left person -->
    <circle cx="42" cy="48" r="2.5" class="accent"/>
    <rect x="40" y="51" width="4" height="6" rx="1" ry="1" class="accent"/>

    <!-- right person -->
    <circle cx="58" cy="48" r="2.5" class="accent"/>
    <rect x="56" y="51" width="4" height="6" rx="1" ry="1" class="accent"/>
  </g>
</svg>

