<svg xmlns="http://www.w3.org/2000/svg" xmlns:xlink="http://www.w3.org/1999/xlink" width="500" zoomAndPan="magnify" viewBox="0 125 300 145" height="500" preserveAspectRatio="xMidYMid meet" version="1.0"><defs><g/><clipPath id="e23f84d1bc"><path d="M 37.5 138.875 L 143.863281 138.875 L 143.863281 236.125 L 37.5 236.125 Z M 37.5 138.875 " clip-rule="nonzero"/></clipPath><clipPath id="3313bb7732"><path d="M 54.75 138.875 L 126.332031 138.875 C 130.90625 138.875 135.292969 140.695312 138.527344 143.929688 C 141.765625 147.164062 143.582031 151.550781 143.582031 156.125 L 143.582031 218.875 C 143.582031 223.449219 141.765625 227.835938 138.527344 231.070312 C 135.292969 234.304688 130.90625 236.125 126.332031 236.125 L 54.75 236.125 C 50.175781 236.125 45.789062 234.304688 42.550781 231.070312 C 39.316406 227.835938 37.5 223.449219 37.5 218.875 L 37.5 156.125 C 37.5 151.550781 39.316406 147.164062 42.550781 143.929688 C 45.789062 140.695312 50.175781 138.875 54.75 138.875 Z M 54.75 138.875 " clip-rule="nonzero"/></clipPath><clipPath id="fbd5e9b8b8"><path d="M 0.5 0.875 L 106.761719 0.875 L 106.761719 98.125 L 0.5 98.125 Z M 0.5 0.875 " clip-rule="nonzero"/></clipPath><clipPath id="8e4ef69dbc"><path d="M 17.75 0.875 L 89.332031 0.875 C 93.90625 0.875 98.292969 2.695312 101.527344 5.929688 C 104.765625 9.164062 106.582031 13.550781 106.582031 18.125 L 106.582031 80.875 C 106.582031 85.449219 104.765625 89.835938 101.527344 93.070312 C 98.292969 96.304688 93.90625 98.125 89.332031 98.125 L 17.75 98.125 C 13.175781 98.125 8.789062 96.304688 5.550781 93.070312 C 2.316406 89.835938 0.5 85.449219 0.5 80.875 L 0.5 18.125 C 0.5 13.550781 2.316406 9.164062 5.550781 5.929688 C 8.789062 2.695312 13.175781 0.875 17.75 0.875 Z M 17.75 0.875 " clip-rule="nonzero"/></clipPath><clipPath id="49273560db"><rect x="0" width="107" y="0" height="99"/></clipPath><clipPath id="47bde2cdb9"><path d="M 37.5 138.875 L 143.25 138.875 L 143.25 236.375 L 37.5 236.375 Z M 37.5 138.875 " clip-rule="nonzero"/></clipPath><clipPath id="8ed97c0148"><path d="M 54.75 138.875 L 126.328125 138.875 C 130.902344 138.875 135.289062 140.695312 138.523438 143.929688 C 141.757812 147.164062 143.578125 151.550781 143.578125 156.125 L 143.578125 218.871094 C 143.578125 223.445312 141.757812 227.832031 138.523438 231.066406 C 135.289062 234.300781 130.902344 236.117188 126.328125 236.117188 L 54.75 236.117188 C 50.175781 236.117188 45.789062 234.300781 42.554688 231.066406 C 39.320312 227.832031 37.5 223.445312 37.5 218.871094 L 37.5 156.125 C 37.5 151.550781 39.320312 147.164062 42.554688 143.929688 C 45.789062 140.695312 50.175781 138.875 54.75 138.875 Z M 54.75 138.875 " clip-rule="nonzero"/></clipPath><clipPath id="f71ef35efd"><path d="M 44.351562 150 L 138 150 L 138 226.96875 L 44.351562 226.96875 Z M 44.351562 150 " clip-rule="nonzero"/></clipPath></defs><g fill="#f1efe7" fill-opacity="1"><g transform="translate(144.317921, 257.894369)"><g><path d="M 30.359375 -56.71875 C 28.503906 -56.550781 27.097656 -55.941406 26.140625 -54.890625 C 25.179688 -53.847656 24.351562 -51.847656 23.65625 -48.890625 L 14.53125 -9.390625 C 14.0625 -7.359375 13.828125 -5.820312 13.828125 -4.78125 C 13.828125 -2.8125 15.078125 -1.710938 17.578125 -1.484375 L 17.21875 0 L 1.3125 0 L 1.65625 -1.484375 C 2.632812 -1.648438 3.570312 -2.195312 4.46875 -3.125 C 5.375 -4.0625 6.175781 -6.035156 6.875 -9.046875 L 16.015625 -48.453125 C 16.066406 -48.859375 16.207031 -49.566406 16.4375 -50.578125 C 16.675781 -51.597656 16.796875 -52.546875 16.796875 -53.421875 C 16.796875 -54.460938 16.519531 -55.257812 15.96875 -55.8125 C 15.414062 -56.363281 14.5 -56.664062 13.21875 -56.71875 L 13.578125 -58.296875 L 30.71875 -58.296875 Z M 30.359375 -56.71875 "/></g></g></g><g fill="#f1efe7" fill-opacity="1"><g transform="translate(163.454845, 257.894369)"><g><path d="M 13.21875 -19.484375 L 13.390625 -19.3125 C 20.523438 -32.769531 26.5625 -39.5 31.5 -39.5 C 32.769531 -39.5 33.796875 -39.035156 34.578125 -38.109375 C 35.359375 -37.179688 35.75 -35.929688 35.75 -34.359375 C 35.75 -32.503906 35.226562 -29.34375 34.1875 -24.875 L 31.40625 -12.96875 C 31.113281 -11.570312 30.851562 -10.46875 30.625 -9.65625 C 30.039062 -7.101562 29.75 -5.507812 29.75 -4.875 C 29.75 -4 30.039062 -3.5625 30.625 -3.5625 C 31.144531 -3.5625 31.78125 -3.953125 32.53125 -4.734375 C 33.289062 -5.523438 34.363281 -6.960938 35.75 -9.046875 L 36.796875 -8.171875 C 34.484375 -4.929688 32.523438 -2.582031 30.921875 -1.125 C 29.328125 0.320312 27.78125 1.046875 26.28125 1.046875 C 25.175781 1.046875 24.332031 0.6875 23.75 -0.03125 C 23.164062 -0.757812 22.875 -1.648438 22.875 -2.703125 C 22.875 -3.742188 23.132812 -5.304688 23.65625 -7.390625 L 28.1875 -26.796875 C 28.414062 -27.546875 28.617188 -28.441406 28.796875 -29.484375 C 28.972656 -30.535156 29.0625 -31.289062 29.0625 -31.75 C 29.0625 -32.445312 28.898438 -33.015625 28.578125 -33.453125 C 28.253906 -33.890625 27.863281 -34.109375 27.40625 -34.109375 C 26.363281 -34.109375 25.015625 -33.25 23.359375 -31.53125 C 21.703125 -29.820312 19.921875 -27.429688 18.015625 -24.359375 C 15.984375 -21.054688 14.226562 -17.53125 12.75 -13.78125 C 11.269531 -10.039062 9.945312 -5.445312 8.78125 0 L 2.34375 0 L 9.140625 -29.5 C 9.597656 -31.644531 9.828125 -32.976562 9.828125 -33.5 C 9.828125 -34.539062 9.476562 -35.25 8.78125 -35.625 C 8.09375 -36 7.140625 -36.1875 5.921875 -36.1875 L 6.265625 -37.578125 L 16.4375 -39.5 L 17.921875 -39.5 Z M 13.21875 -19.484375 "/></g></g></g><g fill="#f1efe7" fill-opacity="1"><g transform="translate(196.161943, 257.894369)"><g><path d="M 13.75 -19.921875 L 13.65625 -12.53125 L 13.828125 -12.53125 L 26.359375 -39.5 L 27.84375 -39.5 L 29.0625 -8.171875 L 29.234375 -8.171875 C 32.128906 -12.753906 34.519531 -16.957031 36.40625 -20.78125 C 38.289062 -24.613281 39.234375 -27.375 39.234375 -29.0625 C 39.234375 -30.21875 39 -31.082031 38.53125 -31.65625 C 38.070312 -32.238281 37.410156 -32.796875 36.546875 -33.328125 C 35.898438 -33.734375 35.398438 -34.125 35.046875 -34.5 C 34.703125 -34.875 34.53125 -35.378906 34.53125 -36.015625 C 34.53125 -37.003906 34.894531 -37.832031 35.625 -38.5 C 36.351562 -39.164062 37.238281 -39.5 38.28125 -39.5 C 39.5 -39.5 40.5 -39.078125 41.28125 -38.234375 C 42.0625 -37.390625 42.453125 -36.242188 42.453125 -34.796875 C 42.453125 -31.898438 41.394531 -28.015625 39.28125 -23.140625 C 37.164062 -18.265625 34.019531 -12.695312 29.84375 -6.4375 L 24.875 1.046875 L 23.3125 1.046875 L 22.359375 -27.140625 L 22.1875 -27.140625 L 8.96875 1.046875 L 7.5625 1.046875 C 7.6875 -6.609375 7.75 -12.351562 7.75 -16.1875 C 7.75 -23.601562 7.515625 -29.113281 7.046875 -32.71875 C 6.867188 -34.101562 6.59375 -35.023438 6.21875 -35.484375 C 5.84375 -35.953125 5.304688 -36.1875 4.609375 -36.1875 L 4.953125 -37.765625 L 11.828125 -39.5 C 12.296875 -38.507812 12.734375 -36.203125 13.140625 -32.578125 C 13.546875 -28.953125 13.75 -24.734375 13.75 -19.921875 Z M 13.75 -19.921875 "/></g></g></g><g fill="#f1efe7" fill-opacity="1"><g transform="translate(232.522555, 257.894369)"><g><path d="M 22.96875 -39.5 C 26.21875 -39.5 28.738281 -38.367188 30.53125 -36.109375 C 32.332031 -33.847656 33.234375 -30.6875 33.234375 -26.625 C 33.234375 -22.5 32.316406 -18.273438 30.484375 -13.953125 C 28.660156 -9.640625 26.195312 -6.0625 23.09375 -3.21875 C 19.988281 -0.375 16.671875 1.046875 13.140625 1.046875 C 9.953125 1.046875 7.441406 -0.0507812 5.609375 -2.25 C 3.785156 -4.457031 2.875 -7.535156 2.875 -11.484375 C 2.875 -15.710938 3.800781 -20.015625 5.65625 -24.390625 C 7.507812 -28.773438 9.988281 -32.390625 13.09375 -35.234375 C 16.195312 -38.078125 19.488281 -39.5 22.96875 -39.5 Z M 15.75 -32.359375 C 13.945312 -28.472656 12.460938 -23.816406 11.296875 -18.390625 C 10.140625 -12.972656 9.5625 -9.078125 9.5625 -6.703125 C 9.5625 -4.847656 9.925781 -3.410156 10.65625 -2.390625 C 11.382812 -1.378906 12.5 -0.875 14 -0.875 C 16.726562 -0.875 18.960938 -2.695312 20.703125 -6.34375 C 22.441406 -10.0625 23.847656 -14.53125 24.921875 -19.75 C 25.992188 -24.96875 26.53125 -28.820312 26.53125 -31.3125 C 26.53125 -35.488281 25.050781 -37.578125 22.09375 -37.578125 C 20.644531 -37.578125 19.425781 -37.140625 18.4375 -36.265625 C 17.457031 -35.398438 16.5625 -34.097656 15.75 -32.359375 Z M 15.75 -32.359375 "/></g></g></g><g fill="#f1efe7" fill-opacity="1"><g transform="translate(260.706262, 257.894369)"><g><path d="M 22.96875 -39.5 C 26.21875 -39.5 28.738281 -38.367188 30.53125 -36.109375 C 32.332031 -33.847656 33.234375 -30.6875 33.234375 -26.625 C 33.234375 -22.5 32.316406 -18.273438 30.484375 -13.953125 C 28.660156 -9.640625 26.195312 -6.0625 23.09375 -3.21875 C 19.988281 -0.375 16.671875 1.046875 13.140625 1.046875 C 9.953125 1.046875 7.441406 -0.0507812 5.609375 -2.25 C 3.785156 -4.457031 2.875 -7.535156 2.875 -11.484375 C 2.875 -15.710938 3.800781 -20.015625 5.65625 -24.390625 C 7.507812 -28.773438 9.988281 -32.390625 13.09375 -35.234375 C 16.195312 -38.078125 19.488281 -39.5 22.96875 -39.5 Z M 15.75 -32.359375 C 13.945312 -28.472656 12.460938 -23.816406 11.296875 -18.390625 C 10.140625 -12.972656 9.5625 -9.078125 9.5625 -6.703125 C 9.5625 -4.847656 9.925781 -3.410156 10.65625 -2.390625 C 11.382812 -1.378906 12.5 -0.875 14 -0.875 C 16.726562 -0.875 18.960938 -2.695312 20.703125 -6.34375 C 22.441406 -10.0625 23.847656 -14.53125 24.921875 -19.75 C 25.992188 -24.96875 26.53125 -28.820312 26.53125 -31.3125 C 26.53125 -35.488281 25.050781 -37.578125 22.09375 -37.578125 C 20.644531 -37.578125 19.425781 -37.140625 18.4375 -36.265625 C 17.457031 -35.398438 16.5625 -34.097656 15.75 -32.359375 Z M 15.75 -32.359375 "/></g></g></g><g fill="#f1efe7" fill-opacity="1"><g transform="translate(288.889969, 257.894369)"><g><path d="M 38.890625 -62.03125 L 26.453125 -8.53125 C 26.390625 -8.238281 26.253906 -7.628906 26.046875 -6.703125 C 25.847656 -5.773438 25.75 -5.222656 25.75 -5.046875 C 25.75 -4.703125 25.847656 -4.382812 26.046875 -4.09375 C 26.253906 -3.800781 26.472656 -3.65625 26.703125 -3.65625 C 27.222656 -3.65625 27.859375 -4.117188 28.609375 -5.046875 C 29.367188 -5.972656 30.359375 -7.421875 31.578125 -9.390625 L 32.71875 -8.703125 C 31.03125 -5.742188 29.300781 -3.378906 27.53125 -1.609375 C 25.757812 0.160156 24.148438 1.046875 22.703125 1.046875 C 21.660156 1.046875 20.847656 0.65625 20.265625 -0.125 C 19.691406 -0.914062 19.40625 -1.976562 19.40625 -3.3125 C 19.40625 -4.8125 20.128906 -8.695312 21.578125 -14.96875 L 21.40625 -15.21875 C 16.820312 -4.375 12.410156 1.046875 8.171875 1.046875 C 6.265625 1.046875 4.785156 0.160156 3.734375 -1.609375 C 2.691406 -3.378906 2.171875 -5.914062 2.171875 -9.21875 C 2.171875 -13.625 3.1875 -18.191406 5.21875 -22.921875 C 7.25 -27.648438 9.800781 -31.59375 12.875 -34.75 C 15.945312 -37.914062 18.90625 -39.5 21.75 -39.5 C 24.070312 -39.5 25.582031 -38.28125 26.28125 -35.84375 L 26.453125 -35.84375 L 29.84375 -50.890625 C 30.476562 -53.679688 30.796875 -55.394531 30.796875 -56.03125 C 30.796875 -56.78125 30.546875 -57.375 30.046875 -57.8125 C 29.554688 -58.25 28.96875 -58.46875 28.28125 -58.46875 C 27.988281 -58.46875 27.679688 -58.421875 27.359375 -58.328125 C 27.046875 -58.242188 26.710938 -58.203125 26.359375 -58.203125 L 26.703125 -59.765625 L 37.5 -62.03125 Z M 8.875 -10.4375 C 8.875 -8.351562 9.101562 -6.832031 9.5625 -5.875 C 10.03125 -4.914062 10.816406 -4.4375 11.921875 -4.4375 C 13.367188 -4.4375 15.117188 -6.085938 17.171875 -9.390625 C 19.234375 -12.703125 21.019531 -16.578125 22.53125 -21.015625 C 24.039062 -25.453125 24.796875 -29.207031 24.796875 -32.28125 C 24.796875 -33.84375 24.519531 -35.113281 23.96875 -36.09375 C 23.414062 -37.082031 22.617188 -37.578125 21.578125 -37.578125 C 19.660156 -37.578125 17.710938 -36.054688 15.734375 -33.015625 C 13.765625 -29.972656 12.128906 -26.289062 10.828125 -21.96875 C 9.523438 -17.644531 8.875 -13.800781 8.875 -10.4375 Z M 8.875 -10.4375 "/></g></g></g><g fill="#f1efe7" fill-opacity="1"><g transform="translate(167.978075, 191.318894)"><g><path d="M 20.625 -57.859375 C 19.050781 -57.859375 17.875 -57.609375 17.09375 -57.109375 C 16.3125 -56.617188 15.921875 -55.738281 15.921875 -54.46875 C 15.921875 -53.707031 16.125 -52.660156 16.53125 -51.328125 L 26.1875 -16.875 L 26.359375 -16.875 L 33.578125 -41.328125 L 30.71875 -51.5 C 30.070312 -53.59375 29.34375 -55.128906 28.53125 -56.109375 C 27.71875 -57.097656 26.296875 -57.679688 24.265625 -57.859375 L 24.265625 -59.328125 L 45.328125 -59.328125 L 45.328125 -57.859375 C 43.117188 -57.859375 41.503906 -57.566406 40.484375 -56.984375 C 39.472656 -56.398438 38.96875 -55.359375 38.96875 -53.859375 C 38.96875 -53.097656 39.203125 -51.878906 39.671875 -50.203125 L 48.71875 -17.21875 L 48.890625 -17.21875 L 57.859375 -49.0625 C 58.429688 -50.976562 58.71875 -52.488281 58.71875 -53.59375 C 58.71875 -55.101562 58.238281 -56.191406 57.28125 -56.859375 C 56.332031 -57.523438 54.785156 -57.859375 52.640625 -57.859375 L 52.640625 -59.328125 L 67.859375 -59.328125 L 67.859375 -57.859375 C 66.753906 -57.742188 65.851562 -57.453125 65.15625 -56.984375 C 64.46875 -56.515625 63.847656 -55.703125 63.296875 -54.546875 C 62.742188 -53.390625 62.148438 -51.648438 61.515625 -49.328125 L 46.890625 1.3125 L 45.328125 1.3125 L 35.328125 -35.234375 L 35.140625 -35.234375 L 24.265625 1.3125 L 22.96875 1.3125 L 8.09375 -50.640625 C 7.332031 -53.191406 6.546875 -54.972656 5.734375 -55.984375 C 4.929688 -56.992188 3.65625 -57.617188 1.90625 -57.859375 L 1.90625 -59.328125 L 20.625 -59.328125 Z M 20.625 -57.859375 "/></g></g></g><g fill="#f1efe7" fill-opacity="1"><g transform="translate(230.60916, 191.318894)"><g><path d="M 15.40625 -40.984375 C 19.289062 -40.984375 22.316406 -39.3125 24.484375 -35.96875 C 26.660156 -32.632812 27.78125 -27.984375 27.84375 -22.015625 L 8.875 -22.015625 C 9.101562 -16.847656 10 -12.800781 11.5625 -9.875 C 13.132812 -6.945312 15.222656 -5.484375 17.828125 -5.484375 C 21.429688 -5.484375 24.304688 -8.410156 26.453125 -14.265625 L 27.84375 -13.65625 C 27.144531 -9.25 25.617188 -5.664062 23.265625 -2.90625 C 20.921875 -0.15625 18.15625 1.21875 14.96875 1.21875 C 12.46875 1.21875 10.257812 0.378906 8.34375 -1.296875 C 6.4375 -2.984375 4.929688 -5.363281 3.828125 -8.4375 C 2.722656 -11.507812 2.171875 -15.019531 2.171875 -18.96875 C 2.171875 -22.445312 2.59375 -25.851562 3.4375 -29.1875 C 4.28125 -32.519531 5.703125 -35.316406 7.703125 -37.578125 C 9.703125 -39.847656 12.269531 -40.984375 15.40625 -40.984375 Z M 8.875 -24.703125 L 20.4375 -24.703125 C 20.382812 -29.578125 19.863281 -33.03125 18.875 -35.0625 C 17.894531 -37.09375 16.503906 -38.109375 14.703125 -38.109375 C 12.671875 -38.109375 11.21875 -36.960938 10.34375 -34.671875 C 9.476562 -32.378906 8.988281 -29.054688 8.875 -24.703125 Z M 8.875 -24.703125 "/></g></g></g><g fill="#f1efe7" fill-opacity="1"><g transform="translate(254.269475, 191.318894)"><g><path d="M 11.3125 -40.984375 C 12.53125 -40.984375 13.628906 -40.804688 14.609375 -40.453125 C 15.597656 -40.109375 16.179688 -39.90625 16.359375 -39.84375 C 17.285156 -39.4375 17.921875 -39.234375 18.265625 -39.234375 C 18.847656 -39.234375 19.3125 -39.523438 19.65625 -40.109375 L 21.234375 -40.109375 L 21.234375 -27.671875 L 19.65625 -27.671875 C 18.96875 -31.085938 17.910156 -33.722656 16.484375 -35.578125 C 15.066406 -37.429688 13.429688 -38.359375 11.578125 -38.359375 C 10.296875 -38.359375 9.203125 -37.894531 8.296875 -36.96875 C 7.398438 -36.039062 6.953125 -34.941406 6.953125 -33.671875 C 6.953125 -32.742188 7.210938 -31.769531 7.734375 -30.75 C 8.265625 -29.738281 8.992188 -28.769531 9.921875 -27.84375 L 12 -25.921875 C 15.070312 -23.253906 17.710938 -20.734375 19.921875 -18.359375 C 21.316406 -16.796875 22.226562 -15.460938 22.65625 -14.359375 C 23.09375 -13.253906 23.3125 -11.890625 23.3125 -10.265625 C 23.3125 -6.960938 22.28125 -4.222656 20.21875 -2.046875 C 18.164062 0.128906 15.660156 1.21875 12.703125 1.21875 C 11.140625 1.21875 9.222656 0.722656 6.953125 -0.265625 C 5.972656 -0.671875 5.304688 -0.875 4.953125 -0.875 C 4.671875 -0.875 4.410156 -0.785156 4.171875 -0.609375 C 3.941406 -0.429688 3.828125 -0.226562 3.828125 0 L 2.265625 0 L 2.265625 -13.390625 L 3.734375 -13.390625 C 4.085938 -9.742188 5.046875 -6.832031 6.609375 -4.65625 C 8.179688 -2.476562 10.097656 -1.390625 12.359375 -1.390625 C 13.742188 -1.390625 14.929688 -1.96875 15.921875 -3.125 C 16.910156 -4.289062 17.40625 -5.6875 17.40625 -7.3125 C 17.40625 -9.570312 16.359375 -11.6875 14.265625 -13.65625 L 10.703125 -16.875 L 6.609375 -20.625 C 5.222656 -21.894531 4.132812 -23.296875 3.34375 -24.828125 C 2.5625 -26.367188 2.171875 -28.15625 2.171875 -30.1875 C 2.171875 -33.375 3.023438 -35.96875 4.734375 -37.96875 C 6.453125 -39.976562 8.644531 -40.984375 11.3125 -40.984375 Z M 11.3125 -40.984375 "/></g></g></g><g fill="#f1efe7" fill-opacity="1"><g transform="translate(273.406399, 191.318894)"><g><path d="M 13.75 -52.8125 L 15.21875 -52.8125 L 15.21875 -40.109375 L 22.625 -40.109375 L 22.625 -37.40625 L 15.21875 -37.40625 L 15.21875 -10.875 C 15.21875 -8.382812 15.519531 -6.601562 16.125 -5.53125 C 16.738281 -4.457031 17.6875 -3.921875 18.96875 -3.921875 C 20.757812 -3.921875 22.148438 -4.960938 23.140625 -7.046875 L 24.796875 -7.046875 C 23.984375 -4.609375 22.71875 -2.617188 21 -1.078125 C 19.289062 0.453125 17.425781 1.21875 15.40625 1.21875 C 12.90625 1.21875 11.085938 0.273438 9.953125 -1.609375 C 8.828125 -3.492188 8.265625 -5.742188 8.265625 -8.359375 L 8.265625 -37.40625 L 3.3125 -37.40625 L 3.3125 -39.0625 C 5.976562 -40.625 8.125 -42.476562 9.75 -44.625 C 11.375 -46.769531 12.707031 -49.5 13.75 -52.8125 Z M 13.75 -52.8125 "/></g></g></g><g clip-path="url(#e23f84d1bc)"><g clip-path="url(#3313bb7732)"><g transform="matrix(1, 0, 0, 1, 37, 138)"><g clip-path="url(#49273560db)"><g clip-path="url(#fbd5e9b8b8)"><g clip-path="url(#8e4ef69dbc)"><path fill="#1c2a53" d="M 0.5 0.875 L 106.484375 0.875 L 106.484375 98.125 L 0.5 98.125 Z M 0.5 0.875 " fill-opacity="1" fill-rule="nonzero"/></g></g></g></g></g></g><g clip-path="url(#47bde2cdb9)"><g clip-path="url(#8ed97c0148)"><path stroke-linecap="butt" transform="matrix(0.75, 0, 0, 0.75, 37.501331, 138.87607)" fill="none" stroke-linejoin="miter" d="M 22.998225 -0.00142677 L 118.435725 -0.00142677 C 124.534683 -0.00142677 130.383642 2.425657 134.696142 6.738157 C 139.008642 11.050657 141.435725 16.899615 141.435725 22.998573 L 141.435725 106.660032 C 141.435725 112.75899 139.008642 118.607948 134.696142 122.920448 C 130.383642 127.232948 124.534683 129.654823 118.435725 129.654823 L 22.998225 129.654823 C 16.899266 129.654823 11.050308 127.232948 6.737808 122.920448 C 2.425308 118.607948 -0.0017752 112.75899 -0.0017752 106.660032 L -0.0017752 22.998573 C -0.0017752 16.899615 2.425308 11.050657 6.737808 6.738157 C 11.050308 2.425657 16.899266 -0.00142677 22.998225 -0.00142677 Z M 22.998225 -0.00142677 " stroke="#f1efe7" stroke-width="8" stroke-opacity="1" stroke-miterlimit="4"/></g></g><g clip-path="url(#f71ef35efd)"><path fill="#f1efe7" d="M 130.394531 157.53125 C 121.070312 148.207031 105.902344 148.207031 96.578125 157.53125 L 90.859375 163.25 L 85.132812 157.527344 C 80.636719 153.03125 74.628906 150.550781 68.226562 150.550781 C 61.820312 150.550781 55.820312 153.03125 51.324219 157.527344 C 46.824219 162.027344 44.347656 168.03125 44.347656 174.433594 C 44.347656 180.832031 46.824219 186.839844 51.324219 191.335938 L 57.078125 197.089844 C 57.113281 197.128906 57.148438 197.167969 57.1875 197.203125 C 57.191406 197.207031 57.195312 197.207031 57.199219 197.210938 L 80.753906 220.769531 C 80.753906 220.773438 80.757812 220.777344 80.761719 220.777344 L 83.875 223.890625 C 85.800781 225.816406 88.328125 226.777344 90.855469 226.777344 C 93.386719 226.777344 95.914062 225.8125 97.839844 223.890625 L 100.957031 220.773438 L 107.910156 213.824219 L 107.910156 213.820312 L 130.394531 191.335938 C 139.710938 182.019531 139.710938 166.851562 130.394531 157.53125 Z M 78.308594 181.71875 C 75.820312 181.71875 73.796875 179.695312 73.796875 177.207031 C 73.796875 174.71875 75.820312 172.695312 78.308594 172.695312 C 80.796875 172.695312 82.820312 174.71875 82.820312 177.207031 C 82.820312 179.695312 80.796875 181.71875 78.308594 181.71875 Z M 76.148438 184.625 L 80.464844 184.625 C 83.476562 184.625 85.925781 186.660156 85.925781 189.167969 L 85.925781 193.003906 C 84.402344 194.363281 83.441406 196.335938 83.441406 198.535156 C 83.441406 200.5 84.214844 202.292969 85.46875 203.621094 C 82.453125 204.746094 80.332031 207.402344 80.332031 210.492188 L 80.332031 216.246094 L 76.285156 212.195312 L 76.285156 199.832031 C 76.285156 196.742188 74.160156 194.089844 71.148438 192.960938 C 72.40625 191.632812 73.179688 189.84375 73.179688 187.871094 C 73.179688 187.074219 73.050781 186.304688 72.816406 185.585938 C 73.769531 184.96875 74.941406 184.625 76.148438 184.625 Z M 103.40625 181.71875 C 100.917969 181.71875 98.894531 179.695312 98.894531 177.207031 C 98.894531 174.71875 100.917969 172.695312 103.40625 172.695312 C 105.890625 172.695312 107.914062 174.71875 107.914062 177.207031 C 107.914062 179.695312 105.890625 181.71875 103.40625 181.71875 Z M 101.246094 184.625 L 105.570312 184.625 C 106.78125 184.625 107.953125 184.96875 108.902344 185.589844 C 108.667969 186.308594 108.539062 187.078125 108.539062 187.875 C 108.539062 189.84375 109.3125 191.632812 110.570312 192.960938 C 107.550781 194.089844 105.429688 196.742188 105.429688 199.832031 L 105.429688 212.199219 L 101.382812 216.25 L 101.382812 210.496094 C 101.382812 207.40625 99.261719 204.753906 96.246094 203.625 C 97.503906 202.292969 98.277344 200.503906 98.277344 198.535156 C 98.277344 196.335938 97.3125 194.359375 95.789062 193 L 95.789062 189.167969 C 95.789062 186.660156 98.238281 184.625 101.246094 184.625 Z M 113.792969 195.289062 L 118.113281 195.289062 C 119.324219 195.289062 120.46875 195.621094 121.40625 196.21875 L 108.332031 209.292969 L 108.332031 199.828125 C 108.332031 197.328125 110.78125 195.289062 113.792969 195.289062 Z M 115.957031 192.382812 C 113.46875 192.382812 111.445312 190.359375 111.445312 187.871094 C 111.445312 185.386719 113.46875 183.359375 115.957031 183.359375 C 118.441406 183.359375 120.464844 185.386719 120.464844 187.871094 C 120.464844 190.359375 118.445312 192.382812 115.957031 192.382812 Z M 95.371094 198.535156 C 95.371094 201.019531 93.347656 203.046875 90.859375 203.046875 C 88.371094 203.046875 86.347656 201.019531 86.347656 198.535156 C 86.347656 196.046875 88.371094 194.023438 90.859375 194.023438 C 93.347656 194.023438 95.371094 196.046875 95.371094 198.535156 Z M 70.273438 187.871094 C 70.273438 190.359375 68.25 192.382812 65.761719 192.382812 C 63.273438 192.382812 61.246094 190.359375 61.246094 187.871094 C 61.246094 185.386719 63.273438 183.359375 65.761719 183.359375 C 68.25 183.359375 70.273438 185.386719 70.273438 187.871094 Z M 63.597656 195.289062 L 67.917969 195.289062 C 70.929688 195.289062 73.378906 197.324219 73.378906 199.832031 L 73.378906 209.292969 L 60.308594 196.21875 C 61.246094 195.621094 62.390625 195.289062 63.597656 195.289062 Z M 95.785156 221.839844 C 93.070312 224.558594 88.644531 224.558594 85.929688 221.839844 L 83.238281 219.148438 L 83.238281 210.492188 C 83.238281 207.988281 85.6875 205.949219 88.695312 205.949219 L 93.015625 205.949219 C 96.027344 205.949219 98.476562 207.988281 98.476562 210.492188 L 98.476562 219.152344 Z M 123.492188 194.132812 C 122.84375 193.644531 122.121094 193.25 121.34375 192.960938 C 122.601562 191.632812 123.371094 189.84375 123.371094 187.871094 C 123.371094 183.78125 120.046875 180.457031 115.957031 180.457031 C 113.703125 180.457031 111.6875 181.464844 110.328125 183.050781 C 109.84375 182.753906 109.328125 182.5 108.789062 182.300781 C 110.046875 180.96875 110.820312 179.175781 110.820312 177.207031 C 110.820312 173.117188 107.496094 169.789062 103.40625 169.789062 C 99.316406 169.789062 95.988281 173.117188 95.988281 177.207031 C 95.988281 179.175781 96.761719 180.964844 98.015625 182.292969 C 95.003906 183.421875 92.882812 186.074219 92.882812 189.164062 L 92.882812 191.398438 C 92.238281 191.214844 91.558594 191.117188 90.859375 191.117188 C 90.15625 191.117188 89.476562 191.214844 88.828125 191.402344 L 88.828125 189.164062 C 88.828125 186.078125 86.707031 183.421875 83.695312 182.292969 C 84.953125 180.964844 85.722656 179.175781 85.722656 177.207031 C 85.722656 173.117188 82.398438 169.789062 78.308594 169.789062 C 74.21875 169.789062 70.890625 173.117188 70.890625 177.207031 C 70.890625 179.175781 71.667969 180.972656 72.925781 182.300781 C 72.390625 182.503906 71.871094 182.753906 71.390625 183.050781 C 70.03125 181.464844 68.011719 180.457031 65.761719 180.457031 C 61.671875 180.457031 58.339844 183.78125 58.339844 187.871094 C 58.339844 189.84375 59.113281 191.632812 60.371094 192.960938 C 59.597656 193.25 58.875 193.644531 58.222656 194.132812 L 53.378906 189.289062 C 49.429688 185.339844 47.253906 180.0625 47.253906 174.4375 C 47.253906 168.808594 49.425781 163.535156 53.378906 159.585938 C 57.328125 155.636719 62.597656 153.460938 68.226562 153.460938 C 73.855469 153.460938 79.132812 155.636719 83.082031 159.585938 L 89.832031 166.332031 C 90.398438 166.898438 91.320312 166.898438 91.886719 166.332031 L 98.632812 159.585938 C 106.820312 151.394531 120.148438 151.394531 128.339844 159.585938 C 136.523438 167.773438 136.523438 181.097656 128.339844 189.289062 Z M 123.492188 194.132812 " fill-opacity="1" fill-rule="nonzero"/></g></svg>
