<svg xmlns="http://www.w3.org/2000/svg" xmlns:xlink="http://www.w3.org/1999/xlink" width="500" height="500" viewBox="35 136 110 102" preserveAspectRatio="xMidYMid meet" version="1.0"><defs><g/><clipPath id="e23f84d1bc"><path d="M 37.5 138.875 L 143.863281 138.875 L 143.863281 236.125 L 37.5 236.125 Z M 37.5 138.875 " clip-rule="nonzero"/></clipPath><clipPath id="3313bb7732"><path d="M 54.75 138.875 L 126.332031 138.875 C 130.90625 138.875 135.292969 140.695312 138.527344 143.929688 C 141.765625 147.164062 143.582031 151.550781 143.582031 156.125 L 143.582031 218.875 C 143.582031 223.449219 141.765625 227.835938 138.527344 231.070312 C 135.292969 234.304688 130.90625 236.125 126.332031 236.125 L 54.75 236.125 C 50.175781 236.125 45.789062 234.304688 42.550781 231.070312 C 39.316406 227.835938 37.5 223.449219 37.5 218.875 L 37.5 156.125 C 37.5 151.550781 39.316406 147.164062 42.550781 143.929688 C 45.789062 140.695312 50.175781 138.875 54.75 138.875 Z M 54.75 138.875 " clip-rule="nonzero"/></clipPath><clipPath id="fbd5e9b8b8"><path d="M 0.5 0.875 L 106.761719 0.875 L 106.761719 98.125 L 0.5 98.125 Z M 0.5 0.875 " clip-rule="nonzero"/></clipPath><clipPath id="8e4ef69dbc"><path d="M 17.75 0.875 L 89.332031 0.875 C 93.90625 0.875 98.292969 2.695312 101.527344 5.929688 C 104.765625 9.164062 106.582031 13.550781 106.582031 18.125 L 106.582031 80.875 C 106.582031 85.449219 104.765625 89.835938 101.527344 93.070312 C 98.292969 96.304688 93.90625 98.125 89.332031 98.125 L 17.75 98.125 C 13.175781 98.125 8.789062 96.304688 5.550781 93.070312 C 2.316406 89.835938 0.5 85.449219 0.5 80.875 L 0.5 18.125 C 0.5 13.550781 2.316406 9.164062 5.550781 5.929688 C 8.789062 2.695312 13.175781 0.875 17.75 0.875 Z M 17.75 0.875 " clip-rule="nonzero"/></clipPath><clipPath id="49273560db"><rect x="0" width="107" y="0" height="99"/></clipPath><clipPath id="47bde2cdb9"><path d="M 37.5 138.875 L 143.25 138.875 L 143.25 236.375 L 37.5 236.375 Z M 37.5 138.875 " clip-rule="nonzero"/></clipPath><clipPath id="8ed97c0148"><path d="M 54.75 138.875 L 126.328125 138.875 C 130.902344 138.875 135.289062 140.695312 138.523438 143.929688 C 141.757812 147.164062 143.578125 151.550781 143.578125 156.125 L 143.578125 218.871094 C 143.578125 223.445312 141.757812 227.832031 138.523438 231.066406 C 135.289062 234.300781 130.902344 236.117188 126.328125 236.117188 L 54.75 236.117188 C 50.175781 236.117188 45.789062 234.300781 42.554688 231.066406 C 39.320312 227.832031 37.5 223.445312 37.5 218.871094 L 37.5 156.125 C 37.5 151.550781 39.320312 147.164062 42.554688 143.929688 C 45.789062 140.695312 50.175781 138.875 54.75 138.875 Z M 54.75 138.875 " clip-rule="nonzero"/></clipPath><clipPath id="f71ef35efd"><path d="M 44.351562 150 L 138 150 L 138 226.96875 L 44.351562 226.96875 Z M 44.351562 150 " clip-rule="nonzero"/></clipPath></defs><rect x="35" width="110" fill="#1c2a53" y="136" height="102" fill-opacity="1"/><g clip-path="url(#e23f84d1bc)"><g clip-path="url(#3313bb7732)"><g transform="matrix(1, 0, 0, 1, 37, 138)"><g clip-path="url(#49273560db)"><g clip-path="url(#fbd5e9b8b8)"><g clip-path="url(#8e4ef69dbc)"><path fill="#1c2a53" d="M 0.5 0.875 L 106.484375 0.875 L 106.484375 98.125 L 0.5 98.125 Z M 0.5 0.875 " fill-opacity="1" fill-rule="nonzero"/></g></g></g></g></g></g><g clip-path="url(#47bde2cdb9)"><g clip-path="url(#8ed97c0148)"><path stroke-linecap="butt" transform="matrix(0.75, 0, 0, 0.75, 37.501331, 138.87607)" fill="none" stroke-linejoin="miter" d="M 22.998225 -0.00142677 L 118.435725 -0.00142677 C 124.534683 -0.00142677 130.383642 2.425657 134.696142 6.738157 C 139.008642 11.050657 141.435725 16.899615 141.435725 22.998573 L 141.435725 106.660032 C 141.435725 112.75899 139.008642 118.607948 134.696142 122.920448 C 130.383642 127.232948 124.534683 129.654823 118.435725 129.654823 L 22.998225 129.654823 C 16.899266 129.654823 11.050308 127.232948 6.737808 122.920448 C 2.425308 118.607948 -0.0017752 112.75899 -0.0017752 106.660032 L -0.0017752 22.998573 C -0.0017752 16.899615 2.425308 11.050657 6.737808 6.738157 C 11.050308 2.425657 16.899266 -0.00142677 22.998225 -0.00142677 Z M 22.998225 -0.00142677 " stroke="#f1efe7" stroke-width="8" stroke-opacity="1" stroke-miterlimit="4"/></g></g><g clip-path="url(#f71ef35efd)"><path fill="#f1efe7" d="M 130.394531 157.53125 C 121.070312 148.207031 105.902344 148.207031 96.578125 157.53125 L 90.859375 163.25 L 85.132812 157.527344 C 80.636719 153.03125 74.628906 150.550781 68.226562 150.550781 C 61.820312 150.550781 55.820312 153.03125 51.324219 157.527344 C 46.824219 162.027344 44.347656 168.03125 44.347656 174.433594 C 44.347656 180.832031 46.824219 186.839844 51.324219 191.335938 L 57.078125 197.089844 C 57.113281 197.128906 57.148438 197.167969 57.1875 197.203125 C 57.191406 197.207031 57.195312 197.207031 57.199219 197.210938 L 80.753906 220.769531 C 80.753906 220.773438 80.757812 220.777344 80.761719 220.777344 L 83.875 223.890625 C 85.800781 225.816406 88.328125 226.777344 90.855469 226.777344 C 93.386719 226.777344 95.914062 225.8125 97.839844 223.890625 L 100.957031 220.773438 L 107.910156 213.824219 L 107.910156 213.820312 L 130.394531 191.335938 C 139.710938 182.019531 139.710938 166.851562 130.394531 157.53125 Z M 78.308594 181.71875 C 75.820312 181.71875 73.796875 179.695312 73.796875 177.207031 C 73.796875 174.71875 75.820312 172.695312 78.308594 172.695312 C 80.796875 172.695312 82.820312 174.71875 82.820312 177.207031 C 82.820312 179.695312 80.796875 181.71875 78.308594 181.71875 Z M 76.148438 184.625 L 80.464844 184.625 C 83.476562 184.625 85.925781 186.660156 85.925781 189.167969 L 85.925781 193.003906 C 84.402344 194.363281 83.441406 196.335938 83.441406 198.535156 C 83.441406 200.5 84.214844 202.292969 85.46875 203.621094 C 82.453125 204.746094 80.332031 207.402344 80.332031 210.492188 L 80.332031 216.246094 L 76.285156 212.195312 L 76.285156 199.832031 C 76.285156 196.742188 74.160156 194.089844 71.148438 192.960938 C 72.40625 191.632812 73.179688 189.84375 73.179688 187.871094 C 73.179688 187.074219 73.050781 186.304688 72.816406 185.585938 C 73.769531 184.96875 74.941406 184.625 76.148438 184.625 Z M 103.40625 181.71875 C 100.917969 181.71875 98.894531 179.695312 98.894531 177.207031 C 98.894531 174.71875 100.917969 172.695312 103.40625 172.695312 C 105.890625 172.695312 107.914062 174.71875 107.914062 177.207031 C 107.914062 179.695312 105.890625 181.71875 103.40625 181.71875 Z M 101.246094 184.625 L 105.570312 184.625 C 106.78125 184.625 107.953125 184.96875 108.902344 185.589844 C 108.667969 186.308594 108.539062 187.078125 108.539062 187.875 C 108.539062 189.84375 109.3125 191.632812 110.570312 192.960938 C 107.550781 194.089844 105.429688 196.742188 105.429688 199.832031 L 105.429688 212.199219 L 101.382812 216.25 L 101.382812 210.496094 C 101.382812 207.40625 99.261719 204.753906 96.246094 203.625 C 97.503906 202.292969 98.277344 200.503906 98.277344 198.535156 C 98.277344 196.335938 97.3125 194.359375 95.789062 193 L 95.789062 189.167969 C 95.789062 186.660156 98.238281 184.625 101.246094 184.625 Z M 113.792969 195.289062 L 118.113281 195.289062 C 119.324219 195.289062 120.46875 195.621094 121.40625 196.21875 L 108.332031 209.292969 L 108.332031 199.828125 C 108.332031 197.328125 110.78125 195.289062 113.792969 195.289062 Z M 115.957031 192.382812 C 113.46875 192.382812 111.445312 190.359375 111.445312 187.871094 C 111.445312 185.386719 113.46875 183.359375 115.957031 183.359375 C 118.441406 183.359375 120.464844 185.386719 120.464844 187.871094 C 120.464844 190.359375 118.445312 192.382812 115.957031 192.382812 Z M 95.371094 198.535156 C 95.371094 201.019531 93.347656 203.046875 90.859375 203.046875 C 88.371094 203.046875 86.347656 201.019531 86.347656 198.535156 C 86.347656 196.046875 88.371094 194.023438 90.859375 194.023438 C 93.347656 194.023438 95.371094 196.046875 95.371094 198.535156 Z M 70.273438 187.871094 C 70.273438 190.359375 68.25 192.382812 65.761719 192.382812 C 63.273438 192.382812 61.246094 190.359375 61.246094 187.871094 C 61.246094 185.386719 63.273438 183.359375 65.761719 183.359375 C 68.25 183.359375 70.273438 185.386719 70.273438 187.871094 Z M 63.597656 195.289062 L 67.917969 195.289062 C 70.929688 195.289062 73.378906 197.324219 73.378906 199.832031 L 73.378906 209.292969 L 60.308594 196.21875 C 61.246094 195.621094 62.390625 195.289062 63.597656 195.289062 Z M 95.785156 221.839844 C 93.070312 224.558594 88.644531 224.558594 85.929688 221.839844 L 83.238281 219.148438 L 83.238281 210.492188 C 83.238281 207.988281 85.6875 205.949219 88.695312 205.949219 L 93.015625 205.949219 C 96.027344 205.949219 98.476562 207.988281 98.476562 210.492188 L 98.476562 219.152344 Z M 123.492188 194.132812 C 122.84375 193.644531 122.121094 193.25 121.34375 192.960938 C 122.601562 191.632812 123.371094 189.84375 123.371094 187.871094 C 123.371094 183.78125 120.046875 180.457031 115.957031 180.457031 C 113.703125 180.457031 111.6875 181.464844 110.328125 183.050781 C 109.84375 182.753906 109.328125 182.5 108.789062 182.300781 C 110.046875 180.96875 110.820312 179.175781 110.820312 177.207031 C 110.820312 173.117188 107.496094 169.789062 103.40625 169.789062 C 99.316406 169.789062 95.988281 173.117188 95.988281 177.207031 C 95.988281 179.175781 96.761719 180.964844 98.015625 182.292969 C 95.003906 183.421875 92.882812 186.074219 92.882812 189.164062 L 92.882812 191.398438 C 92.238281 191.214844 91.558594 191.117188 90.859375 191.117188 C 90.15625 191.117188 89.476562 191.214844 88.828125 191.402344 L 88.828125 189.164062 C 88.828125 186.078125 86.707031 183.421875 83.695312 182.292969 C 84.953125 180.964844 85.722656 179.175781 85.722656 177.207031 C 85.722656 173.117188 82.398438 169.789062 78.308594 169.789062 C 74.21875 169.789062 70.890625 173.117188 70.890625 177.207031 C 70.890625 179.175781 71.667969 180.972656 72.925781 182.300781 C 72.390625 182.503906 71.871094 182.753906 71.390625 183.050781 C 70.03125 181.464844 68.011719 180.457031 65.761719 180.457031 C 61.671875 180.457031 58.339844 183.78125 58.339844 187.871094 C 58.339844 189.84375 59.113281 191.632812 60.371094 192.960938 C 59.597656 193.25 58.875 193.644531 58.222656 194.132812 L 53.378906 189.289062 C 49.429688 185.339844 47.253906 180.0625 47.253906 174.4375 C 47.253906 168.808594 49.425781 163.535156 53.378906 159.585938 C 57.328125 155.636719 62.597656 153.460938 68.226562 153.460938 C 73.855469 153.460938 79.132812 155.636719 83.082031 159.585938 L 89.832031 166.332031 C 90.398438 166.898438 91.320312 166.898438 91.886719 166.332031 L 98.632812 159.585938 C 106.820312 151.394531 120.148438 151.394531 128.339844 159.585938 C 136.523438 167.773438 136.523438 181.097656 128.339844 189.289062 Z M 123.492188 194.132812 " fill-opacity="1" fill-rule="nonzero"/></g></svg>
