<svg xmlns="http://www.w3.org/2000/svg" viewBox="0 0 1000 600" width="1000" height="600" role="img" aria-label="West Inwood logo">
  <!-- Colors -->
  <defs>
    <style>
      .bg { fill: #142843; }        /* deep navy background */
      .mark { fill: none; stroke: #F0EDE6; stroke-width: 18; stroke-linecap: round; stroke-linejoin: round; } 
      .accent { fill: #F0EDE6; }    /* light cream for shapes and text */
    </style>
  </defs>

  <!-- Background -->
  <rect class="bg" x="0" y="0" width="1000" height="600"/>

  <!-- Rounded square icon (outline) - centered and repositioned -->
  <rect x="275" y="75" width="450" height="450" rx="40" ry="40" class="mark"/>

  <!-- Heart shape inside rounded square -->
  <path class="mark" d="M500 215
                       C460 145, 360 145, 330 205
                       C300 265, 380 345, 500 445
                       C620 345, 700 265, 670 205
                       C640 145, 540 145, 500 215 Z" fill="none"/>

  <!-- Simplified people group inside the heart -->
  <g transform="translate(0,-5)" stroke-linecap="round" stroke-linejoin="round">
    <!-- center person -->
    <circle cx="500" cy="300" r="22" class="accent"/>
    <rect x="482" y="324" width="36" height="64" rx="10" ry="10" class="accent"/>

    <!-- left person (slightly behind, smaller) -->
    <circle cx="430" cy="330" r="18" class="accent"/>
    <rect x="414" y="350" width="32" height="56" rx="9" ry="9" class="accent"/>

    <!-- right person -->
    <circle cx="570" cy="330" r="18" class="accent"/>
    <rect x="554" y="350" width="32" height="56" rx="9" ry="9" class="accent"/>

    <!-- two small front people (lower, smaller) -->
    <circle cx="470" cy="380" r="14" class="accent"/>
    <rect x="458" y="398" width="24" height="44" rx="7" ry="7" class="accent"/>

    <circle cx="530" cy="380" r="14" class="accent"/>
    <rect x="518" y="398" width="24" height="44" rx="7" ry="7" class="accent"/>
  </g>

</svg>